<!-- Generated by IcoMoon.io -->
<svg version="1.1" xmlns="http://www.w3.org/2000/svg" width="32" height="32" viewBox="0 0 32 32">
<title>astonished-face</title>
  <circle cx="16.5" cy="16.5" r="13" fill="black" />
  <path fill="yellow" d="M20.106 12.5l-1.044 0.704 0.559 0.829 1.378-0.93 1.378 0.93 0.559-0.829-1.044-0.704 1.044-0.704-0.559-0.829-1.378 0.93-1.378-0.93-0.559 0.829 1.044 0.704zM11.106 12.5l-1.044 0.704 0.559 0.829 1.378-0.93 1.378 0.93 0.559-0.829-1.044-0.704 1.044-0.704-0.559-0.829-1.378 0.93-1.378-0.93-0.559 0.829 1.044 0.704zM16.5 29c-6.904 0-12.5-5.596-12.5-12.5s5.596-12.5 12.5-12.5c6.904 0 12.5 5.596 12.5 12.5s-5.596 12.5-12.5 12.5zM16.5 24c2.485 0 4.5-1.119 4.5-2.5s-2.015-2.5-4.5-2.5c-2.485 0-4.5 1.119-4.5 2.5s2.015 2.5 4.5 2.5z"></path>
</svg>
