
<svg version="1.1" xmlns="http://www.w3.org/2000/svg" width="32" height="32" viewBox="0 0 32 32">

<g transform="translate(0.000000,256.000000) scale(0.100000,-0.100000)"
fill="#000000" stroke="none">
<path d="M1659 2435 c-20 -13 -49 -44 -64 -68 -16 -24 -38 -50 -49 -58 -45
-28 -304 -21 -420 12 -24 7 -56 28 -82 55 -35 35 -50 44 -77 44 -47 0 -83 -31
-92 -77 -10 -54 -46 -96 -112 -134 -71 -39 -103 -67 -103 -89 0 -9 11 -31 25
-50 14 -18 23 -35 21 -38 -3 -2 -70 37 -151 86 -175 108 -195 115 -236 76 -44
-42 -40 -60 41 -186 49 -75 51 -110 11 -165 -41 -56 -78 -80 -152 -97 -67 -16
-99 -41 -99 -78 0 -18 16 -36 88 -98 27 -24 28 -49 3 -190 -10 -58 -16 -108
-14 -112 2 -5 473 -8 1045 -8 l1041 0 -6 33 c-3 17 -11 65 -18 105 -16 90 -11
100 66 127 66 24 105 63 105 106 0 50 -26 65 -126 72 -105 6 -134 17 -159 60
-27 46 -23 102 14 171 35 66 42 135 15 157 -13 10 -29 11 -85 1 -38 -7 -84
-12 -102 -12 -82 0 -198 70 -210 127 -4 16 -1 72 5 125 10 78 9 99 -1 112 -20
24 -81 20 -122 -9z m188 -603 c43 -30 66 -85 60 -138 -9 -84 -80 -141 -163
-131 -192 21 -166 310 27 294 26 -2 60 -13 76 -25z"/>
<path d="M230 1188 c0 -2 7 -41 15 -88 18 -102 19 -164 4 -193 -7 -12 -29 -41
-50 -64 -92 -100 -16 -197 111 -142 68 29 92 20 141 -51 46 -67 69 -135 69
-207 0 -65 20 -108 55 -117 26 -7 52 4 114 49 41 30 56 31 129 4 108 -40 173
-59 234 -69 68 -10 98 -32 129 -92 35 -68 96 -88 137 -45 23 24 52 126 72 255
7 39 16 72 20 72 5 0 12 -30 16 -67 9 -94 18 -113 50 -113 15 0 72 18 127 40
151 61 162 61 229 6 31 -25 67 -46 79 -46 31 0 109 77 109 107 0 13 -12 41
-26 63 -33 50 -28 84 24 160 53 77 84 90 187 83 80 -6 84 -5 109 20 45 45 33
84 -46 156 -58 53 -65 83 -44 186 9 42 16 81 16 86 0 5 -422 9 -1005 9 -553 0
-1005 -1 -1005 -2z"/>
</g>
</svg>
