<!-- Generated by IcoMoon.io -->
<svg version="1.1" xmlns="http://www.w3.org/2000/svg" width="32" height="32" viewBox="0 0 32 32">
<title>smirking-face-sunglasses</title>
  <circle cx="16.5" cy="16.5" r="13" fill="black" />
  <path fill="yellow" d="M16.5 10.707v0c0.063-0.010 0.126-0.021 0.19-0.035 3.203-0.802 7.718-0.765 10.041-0.409 0.28 0.043 0.325 1.215 0.075 1.256-0.459 0.169-0.655 0.59-0.655 0.59s-0.137 0.374-0.535 1.894c-0.398 1.52-1.347 1.702-1.347 1.702s-1.162 0.261-2.502 0.261c-1.34 0-2.142-0.055-3-0.446s-1.233-1.477-1.233-1.477c0 0-0.432-0.937-0.73-1.82-0.045-0.134-0.163-0.225-0.304-0.284-0.14 0.058-0.259 0.15-0.304 0.284-0.298 0.884-0.73 1.82-0.73 1.82s-0.375 1.087-1.233 1.477c-0.858 0.39-1.66 0.446-3 0.446s-2.502-0.261-2.502-0.261c0 0-0.949-0.182-1.347-1.702s-0.535-1.894-0.535-1.894c0 0-0.196-0.421-0.655-0.59-0.249-0.041-0.205-1.213 0.075-1.256 2.323-0.356 6.839-0.393 10.041 0.409 0.064 0.013 0.127 0.025 0.19 0.035zM16.5 29c6.904 0 12.5-5.596 12.5-12.5s-5.596-12.5-12.5-12.5c-6.904 0-12.5 5.596-12.5 12.5s5.596 12.5 12.5 12.5zM15.519 22h2.989c0.824 0 1.492-0.677 1.492-1.495v-0.505h1c0 0 0 0.5 0 1 0 1-1 2-2 2h-7v-1h3.519z"></path>
</svg>
