<svg aria-hidden="true" style="position: absolute; width: 0; height: 0; overflow: hidden;" version="1.1" xmlns="http://www.w3.org/2000/svg" xmlns:xlink="http://www.w3.org/1999/xlink">
<defs>
<symbol id="icon-flashed-face" viewBox="0 0 32 32">
  <circle cx="16.5" cy="16.5" r="13" fill="black" />
  <path fill="yellow" d="M16.5 29c-6.904 0-12.5-5.596-12.5-12.5s5.596-12.5 12.5-12.5c6.904 0 12.5 5.596 12.5 12.5s-5.596 12.5-12.5 12.5zM12 16c1.657 0 3-1.343 3-3s-1.343-3-3-3c-1.657 0-3 1.343-3 3s1.343 3 3 3zM12 15c-1.105 0-2-0.895-2-2s0.895-2 2-2c1.105 0 2 0.895 2 2s-0.895 2-2 2zM21 16c1.657 0 3-1.343 3-3s-1.343-3-3-3c-1.657 0-3 1.343-3 3s1.343 3 3 3zM21 15c-1.105 0-2-0.895-2-2s0.895-2 2-2c1.105 0 2 0.895 2 2s-0.895 2-2 2zM12 14c0.552 0 1-0.448 1-1s-0.448-1-1-1c-0.552 0-1 0.448-1 1s0.448 1 1 1zM21 14c0.552 0 1-0.448 1-1s-0.448-1-1-1c-0.552 0-1 0.448-1 1s0.448 1 1 1zM14 21v1h5v-1h-5z"></path>
</symbol>
<symbol id="icon-smiling-face" viewBox="0 0 32 32">
  <circle cx="16.5" cy="16.5" r="13" fill="black" />
  <path fill="yellow" d="M16.5 29c-6.904 0-12.5-5.596-12.5-12.5s5.596-12.5 12.5-12.5c6.904 0 12.5 5.596 12.5 12.5s-5.596 12.5-12.5 12.5zM12 14c0.552 0 1-0.448 1-1s-0.448-1-1-1c-0.552 0-1 0.448-1 1s0.448 1 1 1zM21 14c0.552 0 1-0.448 1-1s-0.448-1-1-1c-0.552 0-1 0.448-1 1s0.448 1 1 1zM16.481 22c-3.481 0-5.481-2-5.481-2v1c0 0 2 2 5.481 2s5.519-2 5.519-2v-1c0 0-2.037 2-5.519 2z"></path>
</symbol>
<symbol id="icon-astonished-face" viewBox="0 0 32 32">
  <circle cx="16.5" cy="16.5" r="13" fill="black" />
  <path fill="yellow" d="M20.106 12.5l-1.044 0.704 0.559 0.829 1.378-0.93 1.378 0.93 0.559-0.829-1.044-0.704 1.044-0.704-0.559-0.829-1.378 0.93-1.378-0.93-0.559 0.829 1.044 0.704zM11.106 12.5l-1.044 0.704 0.559 0.829 1.378-0.93 1.378 0.93 0.559-0.829-1.044-0.704 1.044-0.704-0.559-0.829-1.378 0.93-1.378-0.93-0.559 0.829 1.044 0.704zM16.5 29c-6.904 0-12.5-5.596-12.5-12.5s5.596-12.5 12.5-12.5c6.904 0 12.5 5.596 12.5 12.5s-5.596 12.5-12.5 12.5zM16.5 24c2.485 0 4.5-1.119 4.5-2.5s-2.015-2.5-4.5-2.5c-2.485 0-4.5 1.119-4.5 2.5s2.015 2.5 4.5 2.5z"></path>
</symbol>
<symbol id="icon-smirking-face-sunglasses" viewBox="0 0 32 32">
  <circle cx="16.5" cy="16.5" r="13" fill="black" />
  <path fill="yellow" d="M16.5 10.707v0c0.063-0.010 0.126-0.021 0.19-0.035 3.203-0.802 7.718-0.765 10.041-0.409 0.28 0.043 0.325 1.215 0.075 1.256-0.459 0.169-0.655 0.59-0.655 0.59s-0.137 0.374-0.535 1.894c-0.398 1.52-1.347 1.702-1.347 1.702s-1.162 0.261-2.502 0.261c-1.34 0-2.142-0.055-3-0.446s-1.233-1.477-1.233-1.477c0 0-0.432-0.937-0.73-1.82-0.045-0.134-0.163-0.225-0.304-0.284-0.14 0.058-0.259 0.15-0.304 0.284-0.298 0.884-0.73 1.82-0.73 1.82s-0.375 1.087-1.233 1.477c-0.858 0.39-1.66 0.446-3 0.446s-2.502-0.261-2.502-0.261c0 0-0.949-0.182-1.347-1.702s-0.535-1.894-0.535-1.894c0 0-0.196-0.421-0.655-0.59-0.249-0.041-0.205-1.213 0.075-1.256 2.323-0.356 6.839-0.393 10.041 0.409 0.064 0.013 0.127 0.025 0.19 0.035zM16.5 29c6.904 0 12.5-5.596 12.5-12.5s-5.596-12.5-12.5-12.5c-6.904 0-12.5 5.596-12.5 12.5s5.596 12.5 12.5 12.5zM15.519 22h2.989c0.824 0 1.492-0.677 1.492-1.495v-0.505h1c0 0 0 0.5 0 1 0 1-1 2-2 2h-7v-1h3.519z"></path>
</symbol>
<symbol id="icon-flag" viewBox="0 0 32 32">
  <path fill="black" d="M0 0h4v32h-4v-32z"></path>
  <path d="M26 20.094c2.582 0 4.83-0.625 6-1.547v-16c-1.17 0.922-3.418 1.547-6 1.547s-4.83-0.625-6-1.547v16c1.17 0.922 3.418 1.547 6 1.547z"></path>
  <path d="M19 1.016c-1.466-0.623-3.61-1.016-6-1.016-3.012 0-5.635 0.625-7 1.547v16c1.365-0.922 3.988-1.547 7-1.547 2.39 0 4.534 0.393 6 1.016v-16z"></path>
</symbol>
</defs>
</svg>
